<svg width="2" height="12" viewBox="0 0 2 12" fill="none" xmlns="http://www.w3.org/2000/svg">
<path d="M1.41658 1.83333C1.41658 2.06345 1.23004 2.25 0.999918 2.25C0.7698 2.25 0.583252 2.06345 0.583252 1.83333C0.583252 1.60321 0.7698 1.41666 0.999918 1.41666C1.23004 1.41666 1.41658 1.60321 1.41658 1.83333Z" stroke="#FCF7FF"/>
<path d="M1.41658 6C1.41658 6.23012 1.23004 6.41666 0.999918 6.41666C0.7698 6.41666 0.583252 6.23012 0.583252 6C0.583252 5.76988 0.7698 5.58333 0.999918 5.58333C1.23004 5.58333 1.41658 5.76988 1.41658 6Z" stroke="#FCF7FF"/>
<path d="M1.41658 10.1667C1.41658 10.3968 1.23004 10.5833 0.999918 10.5833C0.7698 10.5833 0.583252 10.3968 0.583252 10.1667C0.583252 9.93654 0.7698 9.75 0.999918 9.75C1.23004 9.75 1.41658 9.93654 1.41658 10.1667Z" stroke="#FCF7FF"/>
</svg>
