<svg width="14" height="14" viewBox="0 0 14 14" fill="none" xmlns="http://www.w3.org/2000/svg">
<path d="M1.68429 9.46892L2.60162 9.61256C3.2788 9.71861 3.7624 10.3388 3.71253 11.0376L3.64495 11.9847C3.62526 12.2606 3.77224 12.5203 4.01569 12.6405L4.69417 12.9748C4.93762 13.0949 5.2283 13.05 5.42712 12.8627L6.10889 12.2183C6.61152 11.7431 7.38712 11.7431 7.89041 12.2183L8.57218 12.8627C8.771 13.0506 9.06103 13.0949 9.30513 12.9748L9.98493 12.6398C10.2277 12.5203 10.374 12.2613 10.3544 11.986L10.2868 11.0376C10.2369 10.3388 10.7205 9.71861 11.3977 9.61256L12.315 9.46892C12.5821 9.4273 12.7973 9.22257 12.8577 8.95273L13.025 8.20229C13.0854 7.93246 12.9784 7.65255 12.7553 7.49683L11.9895 6.96051C11.4246 6.56448 11.252 5.79122 11.5932 5.18375L12.0558 4.36082C12.1903 4.12119 12.168 3.82115 11.9994 3.60501L11.5302 3.00291C11.3616 2.78677 11.0807 2.6975 10.8222 2.77872L9.93506 3.05661C9.27954 3.26201 8.58071 2.91766 8.32874 2.2659L7.98884 1.38456C7.8891 1.12681 7.64566 0.957659 7.37466 0.95833L6.62268 0.960344C6.35168 0.961015 6.10889 1.13151 6.01046 1.38993L5.6791 2.2612C5.42975 2.91699 4.72764 3.26402 4.07015 3.05728L3.14625 2.76731C2.88706 2.68542 2.60491 2.77536 2.43627 2.99284L1.97038 3.59561C1.80174 3.81376 1.7814 4.11448 1.91854 4.35411L2.39165 5.17905C2.74008 5.78719 2.56947 6.56784 2.00122 6.96588L1.24465 7.49616C1.02155 7.65255 0.914593 7.93246 0.974962 8.20162L1.14229 8.95206C1.202 9.22257 1.41722 9.4273 1.68429 9.46892Z" stroke="#64748B" stroke-width="1.5" stroke-linecap="round" stroke-linejoin="round"/>
<path d="M8.32587 5.6741C9.05802 6.40625 9.05802 7.59374 8.32587 8.32589C7.59372 9.05803 6.40624 9.05803 5.67409 8.32589C4.94194 7.59374 4.94194 6.40625 5.67409 5.6741C6.40624 4.94196 7.59372 4.94196 8.32587 5.6741Z" stroke="#64748B" stroke-width="1.5" stroke-linecap="round" stroke-linejoin="round"/>
</svg>
