<svg width="14" height="14" viewBox="0 0 14 14" fill="none" xmlns="http://www.w3.org/2000/svg">
<path d="M3.45831 0.958344V2.20834M6.99998 0.958344V2.20834M10.5416 0.958344V2.20834M2.62498 13.0417H11.375C12.2955 13.0417 13.0416 12.2955 13.0416 11.375V5.95834C13.0416 5.03787 12.2955 4.29168 11.375 4.29168H2.62498C1.70451 4.29168 0.958313 5.03787 0.958313 5.95834V11.375C0.958313 12.2955 1.70451 13.0417 2.62498 13.0417ZM8.87498 8.66668C8.87498 9.70221 8.03551 10.5417 6.99998 10.5417C5.96445 10.5417 5.12498 9.70221 5.12498 8.66668C5.12498 7.63114 5.96445 6.79168 6.99998 6.79168C8.03551 6.79168 8.87498 7.63114 8.87498 8.66668Z" stroke="#64748B" stroke-width="1.5" stroke-linecap="round" stroke-linejoin="round"/>
</svg>
